<svg width="28" height="28" viewBox="0 0 28 28" fill="none" xmlns="http://www.w3.org/2000/svg">
<path fill-rule="evenodd" clip-rule="evenodd" d="M13.8478 1.50538C6.88313 1.50538 1.21739 7.11019 1.21739 14C1.21739 20.8898 6.88313 26.4946 13.8478 26.4946C20.8125 26.4946 26.4795 20.8898 26.4795 14C26.4795 7.11019 20.8125 1.50538 13.8478 1.50538ZM13.8478 27.6989C6.21235 27.6989 0 21.5534 0 14C0 6.44662 6.21235 0.301075 13.8478 0.301075C21.4845 0.301075 27.6969 6.44662 27.6969 14C27.6969 21.5534 21.4845 27.6989 13.8478 27.6989Z" fill="#007397"/>
<path fill-rule="evenodd" clip-rule="evenodd" d="M13.8479 1.50538C9.96074 1.50538 6.79796 7.11019 6.79796 14C6.79796 20.8898 9.96074 26.4946 13.8479 26.4946C17.7338 26.4946 20.8953 20.8898 20.8953 14C20.8953 7.11019 17.7338 1.50538 13.8479 1.50538ZM13.8479 27.6989C9.28874 27.6989 5.58057 21.5534 5.58057 14C5.58057 6.44662 9.28874 0.301075 13.8479 0.301075C18.4058 0.301075 22.1127 6.44662 22.1127 14C22.1127 21.5534 18.4058 27.6989 13.8479 27.6989Z" fill="#007397"/>
<path fill-rule="evenodd" clip-rule="evenodd" d="M14.4565 1.51947V26.481C21.14 26.1655 26.4795 20.6883 26.4795 13.9996C26.4795 7.31215 21.14 1.83499 14.4565 1.51947ZM13.8478 27.6986C13.5118 27.6986 13.2391 27.43 13.2391 27.0964V0.902863C13.2391 0.570476 13.5118 0.300713 13.8478 0.300713C21.4845 0.300713 27.6969 6.44626 27.6969 13.9996C27.6969 21.553 21.4845 27.6986 13.8478 27.6986Z" fill="#007397"/>
<path fill-rule="evenodd" clip-rule="evenodd" d="M1.89682 18.0139H25.7966C26.2495 16.7037 26.4796 15.3548 26.4796 14C26.4796 12.6452 26.2495 11.2963 25.7954 9.98486H1.89925C1.44638 11.2927 1.21751 12.6415 1.21751 14C1.21751 15.356 1.44517 16.7049 1.89682 18.0139ZM26.2239 19.2182H1.4683C1.21508 19.2182 0.987426 19.0629 0.898557 18.828C0.302035 17.2612 0.00012207 15.6366 0.00012207 14C0.00012207 12.3597 0.303253 10.7351 0.902209 9.16955C0.992296 8.93471 1.21873 8.78056 1.47195 8.78056H26.2239C26.4772 8.78056 26.7036 8.93591 26.7937 9.16955C27.3926 10.74 27.697 12.3658 27.697 14C27.697 15.6354 27.3926 17.26 26.7937 18.8292C26.7036 19.0629 26.4772 19.2182 26.2239 19.2182Z" fill="#007397"/>
</svg>
